<mxfile host="app.diagrams.net" modified="2023-12-20T16:36:21.486Z" agent="Mozilla/5.0 (Macintosh; Intel Mac OS X 10_15_7) AppleWebKit/537.36 (KHTML, like Gecko) Chrome/114.0.0.0 Safari/537.36" etag="XAZMDZ8XoH-fKsR-nYVp" version="22.1.11" type="device">
  <diagram name="Page-1" id="2YBvvXClWsGukQMizWep">
    <mxGraphModel dx="1682" dy="510" grid="0" gridSize="10" guides="1" tooltips="1" connect="1" arrows="1" fold="1" page="1" pageScale="1" pageWidth="850" pageHeight="1100" math="0" shadow="0">
      <root>
        <mxCell id="0" />
        <mxCell id="1" parent="0" />
        <mxCell id="DWSXAkiZ6QvfAdi3cmwB-14" value="" style="rounded=0;whiteSpace=wrap;html=1;" parent="1" vertex="1">
          <mxGeometry x="-820" y="534" width="1301" height="852" as="geometry" />
        </mxCell>
        <mxCell id="kV9o2N_8IUV7rSN7EdCZ-59" value="&lt;div style=&quot;color: rgb(212, 212, 212); background-color: rgb(30, 30, 30); font-family: Menlo, Monaco, &amp;quot;Courier New&amp;quot;, monospace; font-size: 12px; line-height: 18px;&quot;&gt;&lt;i style=&quot;color: rgb(240, 240, 240); font-family: Helvetica; font-size: 11px;&quot;&gt;C# Response&lt;br&gt;&lt;/i&gt;void&lt;/div&gt;" style="html=1;verticalAlign=bottom;endArrow=block;edgeStyle=elbowEdgeStyle;elbow=vertical;curved=0;rounded=0;dashed=1;" parent="1" edge="1">
          <mxGeometry x="-0.7913" y="45" relative="1" as="geometry">
            <mxPoint x="139.5" y="939" as="sourcePoint" />
            <Array as="points">
              <mxPoint x="-139.81" y="939" />
            </Array>
            <mxPoint x="-420" y="939" as="targetPoint" />
            <mxPoint as="offset" />
          </mxGeometry>
        </mxCell>
        <mxCell id="kV9o2N_8IUV7rSN7EdCZ-49" value="&lt;i&gt;C# Call&lt;br&gt;&lt;/i&gt;CreateCheep()" style="html=1;verticalAlign=bottom;endArrow=block;edgeStyle=elbowEdgeStyle;elbow=vertical;curved=0;rounded=0;" parent="1" edge="1">
          <mxGeometry x="-0.8022" y="5" relative="1" as="geometry">
            <mxPoint x="-420" y="872.36" as="sourcePoint" />
            <Array as="points">
              <mxPoint x="-360" y="872" />
              <mxPoint x="-250" y="862" />
            </Array>
            <mxPoint as="offset" />
            <mxPoint x="139.5" y="871.9999999999997" as="targetPoint" />
          </mxGeometry>
        </mxCell>
        <mxCell id="DWSXAkiZ6QvfAdi3cmwB-18" value="" style="endArrow=none;dashed=1;html=1;dashPattern=1 3;strokeWidth=2;rounded=0;" parent="1" edge="1">
          <mxGeometry width="50" height="50" relative="1" as="geometry">
            <mxPoint x="485" y="1124" as="sourcePoint" />
            <mxPoint x="-819" y="1121" as="targetPoint" />
            <Array as="points">
              <mxPoint x="-378" y="1124" />
            </Array>
          </mxGeometry>
        </mxCell>
        <mxCell id="aM9ryv3xv72pqoxQDRHE-1" value=":Client" style="shape=umlLifeline;perimeter=lifelinePerimeter;whiteSpace=wrap;html=1;container=0;dropTarget=0;collapsible=0;recursiveResize=0;outlineConnect=0;portConstraint=eastwest;newEdgeStyle={&quot;edgeStyle&quot;:&quot;elbowEdgeStyle&quot;,&quot;elbow&quot;:&quot;vertical&quot;,&quot;curved&quot;:0,&quot;rounded&quot;:0};" parent="1" vertex="1">
          <mxGeometry x="-740" y="60" width="100" height="1328" as="geometry" />
        </mxCell>
        <mxCell id="aM9ryv3xv72pqoxQDRHE-2" value="" style="html=1;points=[];perimeter=orthogonalPerimeter;outlineConnect=0;targetShapes=umlLifeline;portConstraint=eastwest;newEdgeStyle={&quot;edgeStyle&quot;:&quot;elbowEdgeStyle&quot;,&quot;elbow&quot;:&quot;vertical&quot;,&quot;curved&quot;:0,&quot;rounded&quot;:0};" parent="aM9ryv3xv72pqoxQDRHE-1" vertex="1">
          <mxGeometry x="45" y="60" width="10" height="1208" as="geometry" />
        </mxCell>
        <mxCell id="aM9ryv3xv72pqoxQDRHE-5" value=":Chirp.Web" style="shape=umlLifeline;perimeter=lifelinePerimeter;whiteSpace=wrap;html=1;container=0;dropTarget=0;collapsible=0;recursiveResize=0;outlineConnect=0;portConstraint=eastwest;newEdgeStyle={&quot;edgeStyle&quot;:&quot;elbowEdgeStyle&quot;,&quot;elbow&quot;:&quot;vertical&quot;,&quot;curved&quot;:0,&quot;rounded&quot;:0};" parent="1" vertex="1">
          <mxGeometry x="-470" y="60" width="100" height="1326" as="geometry" />
        </mxCell>
        <mxCell id="kV9o2N_8IUV7rSN7EdCZ-12" value="" style="html=1;points=[];perimeter=orthogonalPerimeter;outlineConnect=0;targetShapes=umlLifeline;portConstraint=eastwest;newEdgeStyle={&quot;edgeStyle&quot;:&quot;elbowEdgeStyle&quot;,&quot;elbow&quot;:&quot;vertical&quot;,&quot;curved&quot;:0,&quot;rounded&quot;:0};" parent="aM9ryv3xv72pqoxQDRHE-5" vertex="1">
          <mxGeometry x="45.5" y="340" width="10" height="40" as="geometry" />
        </mxCell>
        <mxCell id="kV9o2N_8IUV7rSN7EdCZ-46" value="" style="html=1;points=[];perimeter=orthogonalPerimeter;outlineConnect=0;targetShapes=umlLifeline;portConstraint=eastwest;newEdgeStyle={&quot;edgeStyle&quot;:&quot;elbowEdgeStyle&quot;,&quot;elbow&quot;:&quot;vertical&quot;,&quot;curved&quot;:0,&quot;rounded&quot;:0};" parent="aM9ryv3xv72pqoxQDRHE-5" vertex="1">
          <mxGeometry x="45" y="80" width="10" height="100" as="geometry" />
        </mxCell>
        <mxCell id="kV9o2N_8IUV7rSN7EdCZ-47" value="" style="html=1;points=[];perimeter=orthogonalPerimeter;outlineConnect=0;targetShapes=umlLifeline;portConstraint=eastwest;newEdgeStyle={&quot;edgeStyle&quot;:&quot;elbowEdgeStyle&quot;,&quot;elbow&quot;:&quot;vertical&quot;,&quot;curved&quot;:0,&quot;rounded&quot;:0};" parent="aM9ryv3xv72pqoxQDRHE-5" vertex="1">
          <mxGeometry x="45" y="210" width="10" height="100" as="geometry" />
        </mxCell>
        <mxCell id="aM9ryv3xv72pqoxQDRHE-7" value="&lt;i&gt;HTTP Call&lt;br&gt;&lt;/i&gt;GET /Login" style="html=1;verticalAlign=bottom;endArrow=block;edgeStyle=elbowEdgeStyle;elbow=vertical;curved=0;rounded=0;" parent="1" edge="1">
          <mxGeometry x="-0.7343" relative="1" as="geometry">
            <mxPoint x="-684.5" y="410" as="sourcePoint" />
            <Array as="points">
              <mxPoint x="-619.5" y="410" />
              <mxPoint x="-509.5" y="400" />
            </Array>
            <mxPoint as="offset" />
            <mxPoint x="-424.5" y="410" as="targetPoint" />
          </mxGeometry>
        </mxCell>
        <mxCell id="aM9ryv3xv72pqoxQDRHE-9" value="&lt;div style=&quot;color: rgb(212, 212, 212); background-color: rgb(30, 30, 30); font-family: Menlo, Monaco, &amp;quot;Courier New&amp;quot;, monospace; font-size: 12px; line-height: 18px;&quot;&gt;&lt;i&gt;HTTP Call&lt;br&gt;&lt;/i&gt;/signin-github&lt;/div&gt;" style="html=1;verticalAlign=bottom;endArrow=block;edgeStyle=elbowEdgeStyle;elbow=vertical;curved=0;rounded=0;" parent="1" edge="1">
          <mxGeometry x="-0.5333" y="51" relative="1" as="geometry">
            <mxPoint x="-424.5" y="430" as="sourcePoint" />
            <Array as="points">
              <mxPoint x="-499.5" y="430" />
            </Array>
            <mxPoint x="-679.5" y="430" as="targetPoint" />
            <mxPoint as="offset" />
          </mxGeometry>
        </mxCell>
        <mxCell id="aM9ryv3xv72pqoxQDRHE-10" value="&lt;i&gt;HTTP Call&lt;br&gt;&lt;/i&gt;POST/Github Email and Password" style="html=1;verticalAlign=bottom;endArrow=block;dashed=1;edgeStyle=elbowEdgeStyle;elbow=vertical;curved=0;rounded=0;endFill=1;" parent="1" edge="1">
          <mxGeometry x="-0.6856" relative="1" as="geometry">
            <mxPoint x="-170.06" y="516.3299999999999" as="targetPoint" />
            <Array as="points" />
            <mxPoint x="-679.93" y="516.3299999999999" as="sourcePoint" />
            <mxPoint as="offset" />
          </mxGeometry>
        </mxCell>
        <mxCell id="DWSXAkiZ6QvfAdi3cmwB-1" value="Github:OAuth" style="shape=umlLifeline;perimeter=lifelinePerimeter;whiteSpace=wrap;html=1;container=0;dropTarget=0;collapsible=0;recursiveResize=0;outlineConnect=0;portConstraint=eastwest;newEdgeStyle={&quot;edgeStyle&quot;:&quot;elbowEdgeStyle&quot;,&quot;elbow&quot;:&quot;vertical&quot;,&quot;curved&quot;:0,&quot;rounded&quot;:0};" parent="1" vertex="1">
          <mxGeometry x="-210" y="60" width="100" height="1332" as="geometry" />
        </mxCell>
        <mxCell id="DWSXAkiZ6QvfAdi3cmwB-2" value="" style="html=1;points=[];perimeter=orthogonalPerimeter;outlineConnect=0;targetShapes=umlLifeline;portConstraint=eastwest;newEdgeStyle={&quot;edgeStyle&quot;:&quot;elbowEdgeStyle&quot;,&quot;elbow&quot;:&quot;vertical&quot;,&quot;curved&quot;:0,&quot;rounded&quot;:0};" parent="DWSXAkiZ6QvfAdi3cmwB-1" vertex="1">
          <mxGeometry x="45" y="443" width="10" height="709" as="geometry" />
        </mxCell>
        <mxCell id="aM9ryv3xv72pqoxQDRHE-3" value="GET /BDSAGroup8" style="html=1;verticalAlign=bottom;startArrow=oval;endArrow=block;startSize=8;edgeStyle=elbowEdgeStyle;elbow=vertical;curved=0;rounded=0;" parent="1" target="aM9ryv3xv72pqoxQDRHE-1" edge="1">
          <mxGeometry x="-0.0558" relative="1" as="geometry">
            <mxPoint x="-840" y="130" as="sourcePoint" />
            <mxPoint x="-740" y="130" as="targetPoint" />
            <mxPoint as="offset" />
          </mxGeometry>
        </mxCell>
        <mxCell id="DWSXAkiZ6QvfAdi3cmwB-10" value="Github User Authenticated" style="html=1;verticalAlign=bottom;endArrow=block;dashed=1;edgeStyle=elbowEdgeStyle;elbow=vertical;rounded=1;endFill=1;" parent="1" edge="1">
          <mxGeometry x="-0.4109" y="-5" relative="1" as="geometry">
            <mxPoint x="-420.0011111111111" y="583" as="targetPoint" />
            <Array as="points">
              <mxPoint x="-219.39000000000001" y="583" />
            </Array>
            <mxPoint x="-164.39000000000001" y="583" as="sourcePoint" />
            <mxPoint as="offset" />
          </mxGeometry>
        </mxCell>
        <mxCell id="DWSXAkiZ6QvfAdi3cmwB-21" value="Github User NotAuthenticated" style="html=1;verticalAlign=bottom;endArrow=block;dashed=1;endSize=8;edgeStyle=elbowEdgeStyle;elbow=vertical;curved=0;rounded=0;endFill=1;" parent="1" edge="1">
          <mxGeometry x="-0.3353" y="-10" relative="1" as="geometry">
            <mxPoint x="-419" y="1191" as="targetPoint" />
            <Array as="points">
              <mxPoint x="-219.37" y="1191" />
            </Array>
            <mxPoint x="-164.37" y="1191" as="sourcePoint" />
            <mxPoint as="offset" />
          </mxGeometry>
        </mxCell>
        <mxCell id="DWSXAkiZ6QvfAdi3cmwB-24" value="[ If User is Valid" style="text;html=1;align=center;verticalAlign=middle;resizable=0;points=[];autosize=1;strokeColor=none;fillColor=none;" parent="1" vertex="1">
          <mxGeometry x="-811" y="545" width="110" height="30" as="geometry" />
        </mxCell>
        <mxCell id="DWSXAkiZ6QvfAdi3cmwB-25" value="Else ]" style="text;html=1;align=center;verticalAlign=middle;resizable=0;points=[];autosize=1;strokeColor=none;fillColor=none;" parent="1" vertex="1">
          <mxGeometry x="-799" y="1141" width="50" height="30" as="geometry" />
        </mxCell>
        <mxCell id="kV9o2N_8IUV7rSN7EdCZ-9" value="&lt;i&gt;HTTP Call&lt;br&gt;&lt;/i&gt;GET /Public&amp;nbsp;" style="html=1;verticalAlign=bottom;endArrow=block;edgeStyle=elbowEdgeStyle;elbow=vertical;curved=0;rounded=0;" parent="1" target="kV9o2N_8IUV7rSN7EdCZ-46" edge="1">
          <mxGeometry x="-0.663" relative="1" as="geometry">
            <mxPoint x="-684" y="150" as="sourcePoint" />
            <Array as="points">
              <mxPoint x="-630" y="150" />
              <mxPoint x="-509" y="140" />
            </Array>
            <mxPoint as="offset" />
            <mxPoint x="-430" y="150" as="targetPoint" />
          </mxGeometry>
        </mxCell>
        <mxCell id="kV9o2N_8IUV7rSN7EdCZ-15" value="&lt;i&gt;HTTP Call&lt;br&gt;&lt;/i&gt;GET /UserTimeline" style="html=1;verticalAlign=bottom;endArrow=block;edgeStyle=elbowEdgeStyle;elbow=horizontal;curved=0;rounded=0;" parent="1" source="aM9ryv3xv72pqoxQDRHE-2" target="kV9o2N_8IUV7rSN7EdCZ-47" edge="1">
          <mxGeometry x="-0.5841" relative="1" as="geometry">
            <mxPoint x="-680" y="290" as="sourcePoint" />
            <Array as="points">
              <mxPoint x="-630" y="290" />
              <mxPoint x="-505" y="280" />
            </Array>
            <mxPoint as="offset" />
            <mxPoint x="-430" y="290" as="targetPoint" />
          </mxGeometry>
        </mxCell>
        <mxCell id="kV9o2N_8IUV7rSN7EdCZ-16" value="&lt;div style=&quot;color: rgb(212, 212, 212); background-color: rgb(30, 30, 30); font-family: Menlo, Monaco, &amp;quot;Courier New&amp;quot;, monospace; font-size: 12px; line-height: 18px;&quot;&gt;&lt;i&gt;HTTP Response&lt;br&gt;&lt;/i&gt;succes&lt;/div&gt;" style="html=1;verticalAlign=bottom;endArrow=block;edgeStyle=elbowEdgeStyle;elbow=vertical;curved=0;rounded=0;dashed=1;" parent="1" edge="1">
          <mxGeometry x="-0.5451" y="46" relative="1" as="geometry">
            <mxPoint x="-425" y="330" as="sourcePoint" />
            <Array as="points">
              <mxPoint x="-500" y="330" />
            </Array>
            <mxPoint x="-680" y="330" as="targetPoint" />
            <mxPoint as="offset" />
          </mxGeometry>
        </mxCell>
        <mxCell id="kV9o2N_8IUV7rSN7EdCZ-29" value="&lt;div style=&quot;color: rgb(212, 212, 212); background-color: rgb(30, 30, 30); font-family: Menlo, Monaco, &amp;quot;Courier New&amp;quot;, monospace; font-size: 12px; line-height: 18px;&quot;&gt;&lt;i&gt;Redirect/Public&lt;br&gt;Login Success&lt;/i&gt;&lt;/div&gt;" style="html=1;verticalAlign=bottom;endArrow=block;edgeStyle=elbowEdgeStyle;elbow=vertical;curved=0;rounded=0;dashed=1;" parent="1" edge="1">
          <mxGeometry x="-0.5373" y="45" relative="1" as="geometry">
            <mxPoint x="-425" y="613" as="sourcePoint" />
            <Array as="points">
              <mxPoint x="-500" y="613" />
            </Array>
            <mxPoint x="-680" y="613" as="targetPoint" />
            <mxPoint as="offset" />
          </mxGeometry>
        </mxCell>
        <mxCell id="kV9o2N_8IUV7rSN7EdCZ-31" value="&lt;div style=&quot;color: rgb(212, 212, 212); background-color: rgb(30, 30, 30); font-family: Menlo, Monaco, &amp;quot;Courier New&amp;quot;, monospace; font-size: 12px; line-height: 18px;&quot;&gt;&lt;i&gt;Redirect/Public&lt;br&gt;&lt;/i&gt;Login Failed&lt;/div&gt;" style="html=1;verticalAlign=bottom;endArrow=block;edgeStyle=elbowEdgeStyle;elbow=vertical;curved=0;rounded=0;dashed=1;" parent="1" edge="1">
          <mxGeometry x="-0.5451" y="45" relative="1" as="geometry">
            <mxPoint x="-424" y="1205.57" as="sourcePoint" />
            <Array as="points">
              <mxPoint x="-499" y="1205.57" />
            </Array>
            <mxPoint x="-679" y="1205.57" as="targetPoint" />
            <mxPoint as="offset" />
          </mxGeometry>
        </mxCell>
        <mxCell id="kV9o2N_8IUV7rSN7EdCZ-39" value=":DataBase" style="shape=umlLifeline;perimeter=lifelinePerimeter;whiteSpace=wrap;html=1;container=0;dropTarget=0;collapsible=0;recursiveResize=0;outlineConnect=0;portConstraint=eastwest;newEdgeStyle={&quot;edgeStyle&quot;:&quot;elbowEdgeStyle&quot;,&quot;elbow&quot;:&quot;vertical&quot;,&quot;curved&quot;:0,&quot;rounded&quot;:0};" parent="1" vertex="1">
          <mxGeometry x="375" y="60" width="100" height="1330" as="geometry" />
        </mxCell>
        <mxCell id="kV9o2N_8IUV7rSN7EdCZ-41" value="&lt;i&gt;C# Call&lt;br&gt;&lt;/i&gt;GetCheeps()" style="html=1;verticalAlign=bottom;endArrow=block;edgeStyle=elbowEdgeStyle;elbow=vertical;curved=0;rounded=0;" parent="1" source="kV9o2N_8IUV7rSN7EdCZ-46" target="kV9o2N_8IUV7rSN7EdCZ-51" edge="1">
          <mxGeometry x="-0.8377" relative="1" as="geometry">
            <mxPoint x="-410" y="170" as="sourcePoint" />
            <Array as="points">
              <mxPoint x="-340.28000000000003" y="170" />
              <mxPoint x="-230.28" y="160" />
            </Array>
            <mxPoint as="offset" />
            <mxPoint x="425" y="170" as="targetPoint" />
          </mxGeometry>
        </mxCell>
        <mxCell id="kV9o2N_8IUV7rSN7EdCZ-42" value="&lt;div style=&quot;color: rgb(212, 212, 212); background-color: rgb(30, 30, 30); font-family: Menlo, Monaco, &amp;quot;Courier New&amp;quot;, monospace; font-size: 12px; line-height: 18px;&quot;&gt;&lt;i style=&quot;color: rgb(240, 240, 240); font-family: Helvetica; font-size: 11px;&quot;&gt;SQL Response&lt;br&gt;&lt;/i&gt;List &amp;lt;Cheep&amp;gt;&lt;/div&gt;" style="html=1;verticalAlign=bottom;endArrow=block;edgeStyle=elbowEdgeStyle;elbow=vertical;curved=0;rounded=0;dashed=1;" parent="1" target="kV9o2N_8IUV7rSN7EdCZ-51" edge="1">
          <mxGeometry x="-0.6397" y="42" relative="1" as="geometry">
            <mxPoint x="425.5" y="210" as="sourcePoint" />
            <Array as="points">
              <mxPoint x="230" y="210" />
            </Array>
            <mxPoint x="-409" y="210" as="targetPoint" />
            <mxPoint as="offset" />
          </mxGeometry>
        </mxCell>
        <mxCell id="kV9o2N_8IUV7rSN7EdCZ-43" value="&lt;div style=&quot;color: rgb(212, 212, 212); background-color: rgb(30, 30, 30); font-family: Menlo, Monaco, &amp;quot;Courier New&amp;quot;, monospace; font-size: 12px; line-height: 18px;&quot;&gt;&lt;i&gt;HTTP Response&lt;br&gt;&lt;/i&gt;succes&lt;/div&gt;" style="html=1;verticalAlign=bottom;endArrow=block;edgeStyle=elbowEdgeStyle;elbow=vertical;curved=0;rounded=0;dashed=1;" parent="1" edge="1">
          <mxGeometry x="-0.5462" y="50" relative="1" as="geometry">
            <mxPoint x="-425" y="210" as="sourcePoint" />
            <Array as="points">
              <mxPoint x="-425" y="210" />
            </Array>
            <mxPoint x="-685" y="210" as="targetPoint" />
            <mxPoint as="offset" />
          </mxGeometry>
        </mxCell>
        <mxCell id="kV9o2N_8IUV7rSN7EdCZ-44" value="&lt;i&gt;C# Call&lt;br&gt;&lt;/i&gt;GetCheeps(Author)" style="html=1;verticalAlign=bottom;endArrow=block;edgeStyle=elbowEdgeStyle;elbow=horizontal;curved=0;rounded=0;" parent="1" source="kV9o2N_8IUV7rSN7EdCZ-47" target="kV9o2N_8IUV7rSN7EdCZ-51" edge="1">
          <mxGeometry x="-0.78" y="2" relative="1" as="geometry">
            <mxPoint x="-410" y="300" as="sourcePoint" />
            <Array as="points">
              <mxPoint x="-340.28000000000003" y="300" />
              <mxPoint x="-230.28" y="290" />
            </Array>
            <mxPoint as="offset" />
            <mxPoint x="140" y="300" as="targetPoint" />
          </mxGeometry>
        </mxCell>
        <mxCell id="kV9o2N_8IUV7rSN7EdCZ-45" value="&lt;div style=&quot;color: rgb(212, 212, 212); background-color: rgb(30, 30, 30); font-family: Menlo, Monaco, &amp;quot;Courier New&amp;quot;, monospace; font-size: 12px; line-height: 18px;&quot;&gt;&lt;i style=&quot;color: rgb(240, 240, 240); font-family: Helvetica; font-size: 11px;&quot;&gt;SQL Response&lt;br&gt;&lt;/i&gt;List &amp;lt;Cheep&amp;gt;&lt;/div&gt;" style="html=1;verticalAlign=bottom;endArrow=block;edgeStyle=elbowEdgeStyle;elbow=vertical;curved=0;rounded=0;dashed=1;" parent="1" edge="1">
          <mxGeometry x="-0.6216" y="44" relative="1" as="geometry">
            <mxPoint x="424.90999999999957" y="340" as="sourcePoint" />
            <Array as="points">
              <mxPoint x="230.41" y="340" />
            </Array>
            <mxPoint x="140.000909090909" y="340" as="targetPoint" />
            <mxPoint as="offset" />
          </mxGeometry>
        </mxCell>
        <mxCell id="kV9o2N_8IUV7rSN7EdCZ-48" value="&lt;i&gt;HTTP Call&lt;br&gt;&lt;/i&gt;POST /Public&amp;nbsp;" style="html=1;verticalAlign=bottom;endArrow=block;edgeStyle=elbowEdgeStyle;elbow=vertical;curved=0;rounded=0;" parent="1" edge="1">
          <mxGeometry x="-0.6538" relative="1" as="geometry">
            <mxPoint x="-685" y="834" as="sourcePoint" />
            <Array as="points">
              <mxPoint x="-620" y="834" />
              <mxPoint x="-510" y="824" />
            </Array>
            <mxPoint as="offset" />
            <mxPoint x="-425" y="834" as="targetPoint" />
          </mxGeometry>
        </mxCell>
        <mxCell id="kV9o2N_8IUV7rSN7EdCZ-51" value=":Chirp.Infrastructure" style="shape=umlLifeline;perimeter=lifelinePerimeter;whiteSpace=wrap;html=1;container=0;dropTarget=0;collapsible=0;recursiveResize=0;outlineConnect=0;portConstraint=eastwest;newEdgeStyle={&quot;edgeStyle&quot;:&quot;elbowEdgeStyle&quot;,&quot;elbow&quot;:&quot;vertical&quot;,&quot;curved&quot;:0,&quot;rounded&quot;:0};" parent="1" vertex="1">
          <mxGeometry x="80" y="60" width="120" height="1332" as="geometry" />
        </mxCell>
        <mxCell id="kV9o2N_8IUV7rSN7EdCZ-52" value="&lt;i&gt;SQL Query&lt;br&gt;&lt;/i&gt;_context.Cheeps" style="html=1;verticalAlign=bottom;endArrow=block;edgeStyle=elbowEdgeStyle;elbow=vertical;curved=0;rounded=0;" parent="1" edge="1">
          <mxGeometry x="-0.6491" relative="1" as="geometry">
            <mxPoint x="139.99761904761925" y="190" as="sourcePoint" />
            <Array as="points">
              <mxPoint x="220.45" y="190" />
              <mxPoint x="-219.83" y="180" />
            </Array>
            <mxPoint as="offset" />
            <mxPoint x="424.95" y="190" as="targetPoint" />
          </mxGeometry>
        </mxCell>
        <mxCell id="kV9o2N_8IUV7rSN7EdCZ-53" value="&lt;div style=&quot;color: rgb(212, 212, 212); background-color: rgb(30, 30, 30); font-family: Menlo, Monaco, &amp;quot;Courier New&amp;quot;, monospace; font-size: 12px; line-height: 18px;&quot;&gt;&lt;i&gt;C# Response&lt;br&gt;&lt;/i&gt;List &amp;lt;Cheep&amp;gt;&lt;/div&gt;" style="html=1;verticalAlign=bottom;endArrow=block;edgeStyle=elbowEdgeStyle;elbow=vertical;curved=0;rounded=0;dashed=1;" parent="1" target="kV9o2N_8IUV7rSN7EdCZ-46" edge="1">
          <mxGeometry x="-0.8374" y="47" relative="1" as="geometry">
            <mxPoint x="134.69" y="229.9999999999999" as="sourcePoint" />
            <Array as="points">
              <mxPoint x="-134.81" y="230" />
            </Array>
            <mxPoint x="-400" y="230" as="targetPoint" />
            <mxPoint as="offset" />
          </mxGeometry>
        </mxCell>
        <mxCell id="kV9o2N_8IUV7rSN7EdCZ-54" value="&lt;i&gt;SQL Query&lt;br&gt;&lt;/i&gt;_context.Cheeps" style="html=1;verticalAlign=bottom;endArrow=block;edgeStyle=elbowEdgeStyle;elbow=vertical;curved=0;rounded=0;" parent="1" source="kV9o2N_8IUV7rSN7EdCZ-51" edge="1">
          <mxGeometry x="-0.6496" relative="1" as="geometry">
            <mxPoint x="-129" y="320" as="sourcePoint" />
            <Array as="points">
              <mxPoint x="280" y="320" />
              <mxPoint x="55.72" y="310" />
            </Array>
            <mxPoint as="offset" />
            <mxPoint x="425" y="320" as="targetPoint" />
          </mxGeometry>
        </mxCell>
        <mxCell id="kV9o2N_8IUV7rSN7EdCZ-56" value="&lt;div style=&quot;background-color: rgb(30, 30, 30); line-height: 18px;&quot;&gt;&lt;i&gt;C# Response&lt;br&gt;&lt;/i&gt;&lt;font face=&quot;Menlo, Monaco, Courier New, monospace&quot; color=&quot;#d4d4d4&quot;&gt;&lt;span style=&quot;font-size: 12px;&quot;&gt;List &amp;lt;Cheep&amp;gt;&lt;/span&gt;&lt;/font&gt;&lt;/div&gt;" style="html=1;verticalAlign=bottom;endArrow=block;edgeStyle=elbowEdgeStyle;elbow=vertical;curved=0;rounded=0;dashed=1;" parent="1" edge="1">
          <mxGeometry x="-0.7828" y="47" relative="1" as="geometry">
            <mxPoint x="139.69" y="359.9999999999999" as="sourcePoint" />
            <Array as="points">
              <mxPoint x="-129.81" y="360" />
            </Array>
            <mxPoint x="-410" y="360" as="targetPoint" />
            <mxPoint as="offset" />
          </mxGeometry>
        </mxCell>
        <mxCell id="kV9o2N_8IUV7rSN7EdCZ-57" value="&lt;i&gt;SQL Query&lt;br&gt;&lt;/i&gt;_context.Cheeps, _context.Authors" style="html=1;verticalAlign=bottom;endArrow=block;edgeStyle=elbowEdgeStyle;elbow=vertical;curved=0;rounded=0;" parent="1" edge="1">
          <mxGeometry x="-0.2153" relative="1" as="geometry">
            <mxPoint x="140" y="899" as="sourcePoint" />
            <Array as="points" />
            <mxPoint as="offset" />
            <mxPoint x="420" y="899" as="targetPoint" />
          </mxGeometry>
        </mxCell>
        <mxCell id="kV9o2N_8IUV7rSN7EdCZ-58" value="&lt;div style=&quot;color: rgb(212, 212, 212); background-color: rgb(30, 30, 30); font-family: Menlo, Monaco, &amp;quot;Courier New&amp;quot;, monospace; font-size: 12px; line-height: 18px;&quot;&gt;&lt;i style=&quot;color: rgb(240, 240, 240); font-family: Helvetica; font-size: 11px;&quot;&gt;SQL Response&lt;br&gt;&lt;/i&gt;void&lt;/div&gt;" style="html=1;verticalAlign=bottom;endArrow=block;edgeStyle=elbowEdgeStyle;elbow=vertical;curved=0;rounded=0;dashed=1;" parent="1" edge="1">
          <mxGeometry x="-0.5794" y="46" relative="1" as="geometry">
            <mxPoint x="424.90999999999957" y="923.62" as="sourcePoint" />
            <Array as="points">
              <mxPoint x="230.41" y="923.62" />
            </Array>
            <mxPoint x="140.000909090909" y="923.62" as="targetPoint" />
            <mxPoint as="offset" />
          </mxGeometry>
        </mxCell>
        <mxCell id="kV9o2N_8IUV7rSN7EdCZ-60" value="&lt;div style=&quot;color: rgb(212, 212, 212); background-color: rgb(30, 30, 30); font-family: Menlo, Monaco, &amp;quot;Courier New&amp;quot;, monospace; font-size: 12px; line-height: 18px;&quot;&gt;Redirect/Public&lt;/div&gt;" style="html=1;verticalAlign=bottom;endArrow=block;edgeStyle=elbowEdgeStyle;elbow=vertical;curved=0;rounded=0;dashed=1;" parent="1" edge="1">
          <mxGeometry x="-0.4182" y="30" relative="1" as="geometry">
            <mxPoint x="-420" y="969" as="sourcePoint" />
            <Array as="points">
              <mxPoint x="-580" y="959" />
            </Array>
            <mxPoint x="-685" y="959" as="targetPoint" />
            <mxPoint as="offset" />
          </mxGeometry>
        </mxCell>
        <mxCell id="vgFl_T6ULUBL3t-LJ-_D-2" value="" style="rounded=0;whiteSpace=wrap;html=1;" parent="1" vertex="1">
          <mxGeometry x="576" y="180" width="169" height="111" as="geometry" />
        </mxCell>
        <mxCell id="vgFl_T6ULUBL3t-LJ-_D-3" value="" style="html=1;verticalAlign=bottom;endArrow=block;edgeStyle=elbowEdgeStyle;elbow=vertical;curved=0;rounded=0;" parent="1" edge="1">
          <mxGeometry x="-0.6491" relative="1" as="geometry">
            <mxPoint x="657" y="212" as="sourcePoint" />
            <Array as="points">
              <mxPoint x="527.45" y="211" />
              <mxPoint x="87.16999999999999" y="201" />
            </Array>
            <mxPoint as="offset" />
            <mxPoint x="731.95" y="211" as="targetPoint" />
          </mxGeometry>
        </mxCell>
        <mxCell id="vgFl_T6ULUBL3t-LJ-_D-5" value="Request" style="text;html=1;strokeColor=none;fillColor=none;align=center;verticalAlign=middle;whiteSpace=wrap;rounded=0;" parent="1" vertex="1">
          <mxGeometry x="583" y="193" width="60" height="30" as="geometry" />
        </mxCell>
        <mxCell id="vgFl_T6ULUBL3t-LJ-_D-6" value="Response" style="text;html=1;strokeColor=none;fillColor=none;align=center;verticalAlign=middle;whiteSpace=wrap;rounded=0;" parent="1" vertex="1">
          <mxGeometry x="586" y="248" width="60" height="30" as="geometry" />
        </mxCell>
        <mxCell id="vgFl_T6ULUBL3t-LJ-_D-7" value="&lt;div style=&quot;color: rgb(212, 212, 212); background-color: rgb(30, 30, 30); font-family: Menlo, Monaco, &amp;quot;Courier New&amp;quot;, monospace; font-size: 12px; line-height: 18px;&quot;&gt;&lt;br&gt;&lt;/div&gt;" style="html=1;verticalAlign=bottom;endArrow=block;edgeStyle=elbowEdgeStyle;elbow=vertical;curved=0;rounded=0;dashed=1;" parent="1" edge="1">
          <mxGeometry x="-0.6216" y="44" relative="1" as="geometry">
            <mxPoint x="731" y="262" as="sourcePoint" />
            <Array as="points">
              <mxPoint x="751.41" y="263" />
            </Array>
            <mxPoint x="661.000909090909" y="263" as="targetPoint" />
            <mxPoint as="offset" />
          </mxGeometry>
        </mxCell>
        <mxCell id="vgFl_T6ULUBL3t-LJ-_D-8" value="" style="endArrow=none;html=1;rounded=0;entryX=1;entryY=0.5;entryDx=0;entryDy=0;exitX=0;exitY=0.5;exitDx=0;exitDy=0;" parent="1" source="vgFl_T6ULUBL3t-LJ-_D-2" target="vgFl_T6ULUBL3t-LJ-_D-2" edge="1">
          <mxGeometry width="50" height="50" relative="1" as="geometry">
            <mxPoint x="494" y="295" as="sourcePoint" />
            <mxPoint x="544" y="245" as="targetPoint" />
          </mxGeometry>
        </mxCell>
      </root>
    </mxGraphModel>
  </diagram>
</mxfile>
